<?xml version="1.0" encoding="UTF-8"?>
<!DOCTYPE svg PUBLIC "-//W3C//DTD SVG 1.1//EN" "http://www.w3.org/Graphics/SVG/1.1/DTD/svg11.dtd">
<svg xmlns="http://www.w3.org/2000/svg" version="1.1" width="763px" height="140px" style="shape-rendering:geometricPrecision; text-rendering:geometricPrecision; image-rendering:optimizeQuality; fill-rule:evenodd; clip-rule:evenodd" xmlns:xlink="http://www.w3.org/1999/xlink">
<g><path style="opacity:0.921" fill="#323232" d="M 69.5,-0.5 C 77.5,-0.5 85.5,-0.5 93.5,-0.5C 123.609,6.77354 142.775,25.4402 151,55.5C 154.955,56.9774 158.622,58.9774 162,61.5C 164.274,72.9578 163.607,84.2912 160,95.5C 155.329,97.0755 150.496,97.7422 145.5,97.5C 142.473,105.868 137.473,112.868 130.5,118.5C 130.5,117.833 130.5,117.167 130.5,116.5C 132.591,113.229 134.924,110.063 137.5,107C 136.944,106.617 136.611,106.117 136.5,105.5C 137.71,105.068 138.71,104.401 139.5,103.5C 140.929,100.304 142.595,97.3037 144.5,94.5C 144.435,94.9382 144.601,95.2716 145,95.5C 145.852,94.4293 146.685,93.4293 147.5,92.5C 148.334,93.7479 149.667,94.4146 151.5,94.5C 153.333,94.4146 154.666,93.7479 155.5,92.5C 155.833,91.8333 156.167,91.1667 156.5,90.5C 158.287,86.5861 159.454,82.2527 160,77.5C 160.772,73.1103 160.606,68.777 159.5,64.5C 158.5,63.6667 157.5,62.8333 156.5,62C 148.562,59.1867 140.562,56.6867 132.5,54.5C 106.477,48.6071 80.1438,47.1071 53.5,50C 43.8459,51.822 34.5126,54.322 25.5,57.5C 16.8669,59.564 9.3669,63.564 3,69.5C 2.50423,74.208 2.83756,78.8747 4,83.5C 4.41623,87.5289 5.58289,91.1956 7.5,94.5C 7.08247,95.2216 6.4158,95.7216 5.5,96C 6.4158,96.2784 7.08247,96.7784 7.5,97.5C 8.69363,98.7773 10.3603,99.4439 12.5,99.5C 14.3693,99.4932 16.036,99.1599 17.5,98.5C 19.7082,99.8936 21.2082,101.894 22,104.5C 22.8382,105.999 23.6715,106.332 24.5,105.5C 24.9539,103.741 24.9539,101.741 24.5,99.5C 25.7384,97.7857 26.405,95.7857 26.5,93.5C 27.5436,98.839 29.0436,104.172 31,109.5C 34.0823,111.625 37.2489,113.625 40.5,115.5C 41.4973,108.197 41.8306,100.863 41.5,93.5C 41.9382,93.5654 42.2716,93.3988 42.5,93C 41.8333,92.6667 41.1667,92.3333 40.5,92C 41.4158,91.7216 42.0825,91.2216 42.5,90.5C 42.2322,88.901 42.5655,87.5676 43.5,86.5C 43.1273,90.8097 44.1273,94.1431 46.5,96.5C 45.179,99.5982 44.5123,103.098 44.5,107C 44.6667,110.5 44.8333,114 45,117.5C 48.9048,119.972 53.0714,121.972 57.5,123.5C 60.1276,122.535 62.1276,120.868 63.5,118.5C 64.9643,117.595 66.2976,117.595 67.5,118.5C 69.8568,118.663 72.1902,118.497 74.5,118C 75.2191,115.444 76.8858,114.277 79.5,114.5C 79.5,113.5 79.5,112.5 79.5,111.5C 78.209,111.737 77.209,111.404 76.5,110.5C 78.153,110.34 79.4863,109.674 80.5,108.5C 84.3354,109.004 84.3354,110.004 80.5,111.5C 82.8584,113.287 85.525,114.287 88.5,114.5C 89.2625,115.268 90.2625,115.768 91.5,116C 85.6359,121.433 78.9693,125.6 71.5,128.5C 68.9719,127.058 66.3053,126.558 63.5,127C 63.0426,127.414 62.7093,127.914 62.5,128.5C 63.6651,129.584 64.9984,130.417 66.5,131C 64.5789,131.36 62.9122,132.194 61.5,133.5C 65.2887,134.769 68.9554,134.436 72.5,132.5C 85.916,138.541 98.2493,136.874 109.5,127.5C 110.167,128.167 110.833,128.833 111.5,129.5C 114.22,128.14 116.886,126.807 119.5,125.5C 119.435,125.938 119.601,126.272 120,126.5C 121.154,125.257 122.488,124.257 124,123.5C 124.617,122.551 124.451,121.718 123.5,121C 125.518,120.495 127.518,119.995 129.5,119.5C 119.539,129.814 107.539,136.481 93.5,139.5C 85.1667,139.5 76.8333,139.5 68.5,139.5C 46.9737,134.57 30.6403,122.57 19.5,103.5C 15.1496,103.811 10.8162,103.311 6.5,102C 5.66667,101.167 4.83333,100.333 4,99.5C 2.16036,94.1258 0.660356,88.7925 -0.5,83.5C -0.5,78.1667 -0.5,72.8333 -0.5,67.5C 2.52908,64.1333 6.19574,61.4666 10.5,59.5C 18.1668,27.5012 37.8335,7.50119 69.5,-0.5 Z"/></g>
<g><path style="opacity:1" fill="#ececec" d="M 72.5,2.5 C 74.8568,2.33669 77.1902,2.50335 79.5,3C 75.6641,5.08363 71.9974,7.41696 68.5,10C 72.8205,11.418 77.1539,11.5847 81.5,10.5C 83.9156,5.86449 87.5823,3.69782 92.5,4C 89.6503,6.6824 86.9836,9.51574 84.5,12.5C 90.6128,13.8608 96.6128,15.5275 102.5,17.5C 102.5,13.8333 102.5,10.1667 102.5,6.5C 103.5,6.5 104.5,6.5 105.5,6.5C 105.203,10.7675 105.536,14.9341 106.5,19C 109.535,20.637 112.535,21.4703 115.5,21.5C 114.107,17.7143 112.441,14.0477 110.5,10.5C 112.061,9.65273 113.561,9.98607 115,11.5C 117.427,15.7873 119.261,20.2873 120.5,25C 124.191,27.0192 127.858,28.6858 131.5,30C 124.3,18.8789 125.133,18.0455 134,27.5C 135.584,31.6747 137.918,35.3413 141,38.5C 142.752,43.6625 144.585,48.8292 146.5,54C 145.216,54.6838 144.049,54.5171 143,53.5C 142.26,48.8575 140.76,44.5242 138.5,40.5C 137.311,39.5713 135.978,39.238 134.5,39.5C 134.703,37.6096 134.037,36.1096 132.5,35C 129.006,33.4205 125.673,31.5872 122.5,29.5C 122.167,29.8333 121.833,30.1667 121.5,30.5C 123.081,35.7244 124.248,41.0577 125,46.5C 127.291,47.3106 129.125,46.4772 130.5,44C 132.433,43.7489 134.266,43.2489 136,42.5C 137.631,45.6821 138.297,49.0154 138,52.5C 131.117,49.764 123.95,48.264 116.5,48C 111.794,46.2647 107.127,44.4313 102.5,42.5C 101.614,43.325 101.281,44.325 101.5,45.5C 100.5,45.5 99.5,45.5 98.5,45.5C 98.5,44.1667 98.5,42.8333 98.5,41.5C 88.6129,39.1226 78.6129,37.1226 68.5,35.5C 66.9707,35.5288 65.804,36.1955 65,37.5C 63.35,40.9667 61.1833,43.9667 58.5,46.5C 57.8333,46.3333 57.1667,46.1667 56.5,46C 58.3735,42.4186 60.3735,38.9186 62.5,35.5C 57.5559,33.7548 52.5559,33.4215 47.5,34.5C 51.2988,35.4009 52.2988,37.5676 50.5,41C 51.345,43.4569 53.0117,45.1236 55.5,46C 46.1629,48.0009 36.8296,50.3343 27.5,53C 23.6322,54.0114 19.9655,55.5114 16.5,57.5C 16.235,50.2833 18.235,43.6166 22.5,37.5C 22.8333,37.6667 23.1667,37.8333 23.5,38C 22.8333,39.6667 22.1667,41.3333 21.5,43C 25.7999,44.297 28.2999,47.1303 29,51.5C 30.746,47.6733 32.746,44.0066 35,40.5C 35.6838,39.2161 35.5171,38.0495 34.5,37C 31.3927,35.3086 28.0594,34.1419 24.5,33.5C 24.9767,32.5224 25.6433,31.6891 26.5,31C 31.7848,29.974 37.1181,29.3073 42.5,29C 47.1667,23 52.5,17.6667 58.5,13C 54.8333,12.6667 51.1667,12.3333 47.5,12C 47.8333,11.6667 48.1667,11.3333 48.5,11C 57.8193,11.4117 65.8193,8.57839 72.5,2.5 Z"/></g>
<g><path style="opacity:1" fill="#2f2f2f" d="M 55.5,30.5 C 52.8333,29.8333 50.1667,29.1667 47.5,28.5C 51.9703,23.1977 56.9703,18.3644 62.5,14C 67.5576,13.3388 72.5576,13.6721 77.5,15C 73.4691,19.564 69.8025,24.3973 66.5,29.5C 62.8927,30.4892 59.226,30.8226 55.5,30.5 Z"/></g>
<g><path style="opacity:1" fill="#313131" d="M 80.5,15.5 C 87.5613,16.8611 94.5613,18.5278 101.5,20.5C 101.754,25.9614 101.088,31.2948 99.5,36.5C 98.6667,36.8333 97.8333,37.1667 97,37.5C 87.8218,35.5643 78.6551,33.5643 69.5,31.5C 73.1865,26.1089 76.8531,20.7756 80.5,15.5 Z"/></g>
<g><path style="opacity:1" fill="#323232" d="M 105.5,22.5 C 109.619,23.4753 113.452,25.142 117,27.5C 119.385,33.3588 120.218,39.3588 119.5,45.5C 114.345,43.3941 109.178,41.3941 104,39.5C 104.083,33.8249 104.583,28.1583 105.5,22.5 Z"/></g>
<g><path style="opacity:1" fill="#6e6e6e" d="M 47.5,28.5 C 50.1667,29.1667 52.8333,29.8333 55.5,30.5C 52.4281,30.8174 49.4281,30.4841 46.5,29.5C 46.6236,28.8933 46.9569,28.56 47.5,28.5 Z"/></g>
<g><path style="opacity:1" fill="#202020" d="M 37.5,42.5 C 38.339,43.6412 39.0057,44.9745 39.5,46.5C 38.5373,48.4896 37.204,48.8229 35.5,47.5C 36.4565,45.9246 37.1231,44.258 37.5,42.5 Z"/></g>
<g><path style="opacity:1" fill="#faf9f9" d="M 132.5,54.5 C 134.23,56.1214 136.23,57.4548 138.5,58.5C 136.549,58.2267 135.049,58.8934 134,60.5C 132.182,66.7819 130.682,73.1153 129.5,79.5C 128.292,80.2341 126.959,80.5674 125.5,80.5C 111.082,78.5344 96.5817,77.201 82,76.5C 65.2295,77.0751 48.7295,79.4085 32.5,83.5C 31.5266,83.0133 30.5266,82.5133 29.5,82C 28.2617,81.31 28.2617,80.81 29.5,80.5C 37.9515,83.4389 43.6181,80.7723 46.5,72.5C 46.1667,71.8333 45.8333,71.1667 45.5,70.5C 44.2638,71.2458 42.9305,71.5792 41.5,71.5C 40.877,76.2881 38.2103,78.1214 33.5,77C 28.6889,72.2093 28.3556,67.2093 32.5,62C 35.7417,61.0145 38.4083,61.8478 40.5,64.5C 41.931,64.0234 43.2643,63.3567 44.5,62.5C 41.0679,57.6954 36.4012,56.1954 30.5,58C 29.7562,59.0386 28.7562,59.5386 27.5,59.5C 26.5,59.1667 25.8333,58.5 25.5,57.5C 34.5126,54.322 43.8459,51.822 53.5,50C 80.1438,47.1071 106.477,48.6071 132.5,54.5 Z"/></g>
<g><path style="opacity:1" fill="#ed8887" d="M 91.5,51.5 C 87.5,51.5 83.5,51.5 79.5,51.5C 79.5,58.8333 79.5,66.1667 79.5,73.5C 84.1667,73.5 88.8333,73.5 93.5,73.5C 88.6946,74.4872 83.6946,74.8205 78.5,74.5C 78.5,66.5 78.5,58.5 78.5,50.5C 83.0323,50.1818 87.3656,50.5151 91.5,51.5 Z"/></g>
<g><path style="opacity:1" fill="#e54a47" d="M 91.5,51.5 C 93.3904,51.2965 94.8904,51.9632 96,53.5C 96.9782,56.6693 96.4782,59.5027 94.5,62C 97.5703,64.5692 98.237,67.7358 96.5,71.5C 95.6431,72.4252 94.6431,73.0919 93.5,73.5C 88.8333,73.5 84.1667,73.5 79.5,73.5C 79.5,66.1667 79.5,58.8333 79.5,51.5C 83.5,51.5 87.5,51.5 91.5,51.5 Z"/></g>
<g><path style="opacity:1" fill="#fdf1f1" d="M 83.5,55.5 C 86.1873,55.3359 88.854,55.5026 91.5,56C 92.727,57.5874 92.3937,58.9207 90.5,60C 88.1902,60.4966 85.8568,60.6633 83.5,60.5C 83.5,58.8333 83.5,57.1667 83.5,55.5 Z"/></g>
<g><path style="opacity:1" fill="#e54d4a" d="M 29.5,80.5 C 23.7448,73.9492 23.0781,66.9492 27.5,59.5C 28.7562,59.5386 29.7562,59.0386 30.5,58C 36.4012,56.1954 41.0679,57.6954 44.5,62.5C 43.2643,63.3567 41.931,64.0234 40.5,64.5C 38.4083,61.8478 35.7417,61.0145 32.5,62C 28.3556,67.2093 28.6889,72.2093 33.5,77C 38.2103,78.1214 40.877,76.2881 41.5,71.5C 42.9305,71.5792 44.2638,71.2458 45.5,70.5C 45.8333,71.1667 46.1667,71.8333 46.5,72.5C 43.6181,80.7723 37.9515,83.4389 29.5,80.5 Z"/></g>
<g><path style="opacity:0.828" fill="#d23938" d="M 195.5,59.5 C 200.449,58.9589 205.116,59.7922 209.5,62C 207.37,66.0874 204.537,66.5874 201,63.5C 198.097,64.0686 196.097,65.7352 195,68.5C 194.146,72.6251 194.48,76.6251 196,80.5C 199.263,84.224 202.596,84.224 206,80.5C 210.072,82.6973 210.239,84.864 206.5,87C 199.856,89.4651 194.356,87.9651 190,82.5C 188.508,77.5893 188.174,72.5893 189,67.5C 190.305,64.0386 192.471,61.372 195.5,59.5 Z"/></g>
<g><path style="opacity:0.914" fill="#d23938" d="M 212.5,59.5 C 218.167,59.5 223.833,59.5 229.5,59.5C 229.5,60.8333 229.5,62.1667 229.5,63.5C 225.833,63.5 222.167,63.5 218.5,63.5C 218.5,66.1667 218.5,68.8333 218.5,71.5C 221.5,71.5 224.5,71.5 227.5,71.5C 227.5,72.8333 227.5,74.1667 227.5,75.5C 224.5,75.5 221.5,75.5 218.5,75.5C 218.5,78.1667 218.5,80.8333 218.5,83.5C 222.167,83.5 225.833,83.5 229.5,83.5C 229.5,84.8333 229.5,86.1667 229.5,87.5C 223.833,87.5 218.167,87.5 212.5,87.5C 212.5,78.1667 212.5,68.8333 212.5,59.5 Z"/></g>
<g><path style="opacity:0.899" fill="#d23938" d="M 234.5,59.5 C 237.247,59.1866 239.914,59.52 242.5,60.5C 245.098,66.4595 247.598,72.4595 250,78.5C 250.5,72.1754 250.666,65.8421 250.5,59.5C 252.167,59.5 253.833,59.5 255.5,59.5C 255.5,68.8333 255.5,78.1667 255.5,87.5C 252.753,87.8134 250.086,87.48 247.5,86.5C 245,80.8333 242.5,75.1667 240,69.5C 239.501,75.4908 239.334,81.4908 239.5,87.5C 237.833,87.5 236.167,87.5 234.5,87.5C 234.5,78.1667 234.5,68.8333 234.5,59.5 Z"/></g>
<g><path style="opacity:0.868" fill="#d23938" d="M 258.5,59.5 C 265.5,59.5 272.5,59.5 279.5,59.5C 279.5,61.1667 279.5,62.8333 279.5,64.5C 277.167,64.5 274.833,64.5 272.5,64.5C 272.5,72.1667 272.5,79.8333 272.5,87.5C 270.5,87.5 268.5,87.5 266.5,87.5C 266.5,79.8333 266.5,72.1667 266.5,64.5C 263.833,64.5 261.167,64.5 258.5,64.5C 258.5,62.8333 258.5,61.1667 258.5,59.5 Z"/></g>
<g><path style="opacity:0.866" fill="#d23938" d="M 282.5,59.5 C 284.5,59.5 286.5,59.5 288.5,59.5C 288.334,67.1739 288.5,74.8406 289,82.5C 292.939,85.2044 295.605,84.2044 297,79.5C 297.5,72.8417 297.666,66.175 297.5,59.5C 299.5,59.5 301.5,59.5 303.5,59.5C 303.87,67.903 303.37,76.2363 302,84.5C 297.108,88.7763 291.608,89.6096 285.5,87C 284.299,86.0975 283.465,84.9308 283,83.5C 282.5,75.5069 282.334,67.5069 282.5,59.5 Z"/></g>
<g><path style="opacity:0.864" fill="#d23938" d="M 308.5,59.5 C 313.511,59.3341 318.511,59.5007 323.5,60C 327.861,62.2258 329.361,65.7258 328,70.5C 326.833,73 325,74.8333 322.5,76C 325.205,79.242 327.539,82.742 329.5,86.5C 327.167,87.8333 324.833,87.8333 322.5,86.5C 320.646,82.7792 318.313,79.4459 315.5,76.5C 314.511,80.1073 314.177,83.774 314.5,87.5C 312.5,87.5 310.5,87.5 308.5,87.5C 308.5,78.1667 308.5,68.8333 308.5,59.5 Z M 314.5,63.5 C 321.351,62.9846 323.351,65.6512 320.5,71.5C 318.591,72.3482 316.591,72.6816 314.5,72.5C 314.5,69.5 314.5,66.5 314.5,63.5 Z"/></g>
<g><path style="opacity:0.853" fill="#d23938" d="M 329.5,59.5 C 331.792,59.2436 333.959,59.5769 336,60.5C 337.941,64.0477 339.607,67.7143 341,71.5C 342.432,67.4689 344.266,63.6355 346.5,60C 348.579,59.1923 350.579,59.359 352.5,60.5C 349.921,65.9918 347.088,71.3252 344,76.5C 343.501,80.1516 343.335,83.8183 343.5,87.5C 341.5,87.5 339.5,87.5 337.5,87.5C 337.666,83.4862 337.499,79.4862 337,75.5C 334.215,70.2655 331.715,64.9321 329.5,59.5 Z"/></g>
<g><path style="opacity:0.872" fill="#d23938" d="M 365.5,59.5 C 371.29,59.0962 376.956,59.5962 382.5,61C 385.383,65.2685 385.05,69.2685 381.5,73C 384.683,74.0183 386.016,76.185 385.5,79.5C 385.953,83.4306 384.286,85.9306 380.5,87C 375.511,87.4993 370.511,87.6659 365.5,87.5C 365.5,78.1667 365.5,68.8333 365.5,59.5 Z M 371.5,63.5 C 376.983,62.8069 378.983,64.9735 377.5,70C 375.655,71.128 373.655,71.628 371.5,71.5C 371.5,68.8333 371.5,66.1667 371.5,63.5 Z M 371.5,75.5 C 377.472,74.3089 379.805,76.4756 378.5,82C 376.323,83.2022 373.989,83.7022 371.5,83.5C 371.5,80.8333 371.5,78.1667 371.5,75.5 Z"/></g>
<g><path style="opacity:0.869" fill="#d23938" d="M 395.5,59.5 C 398.167,59.5 400.833,59.5 403.5,59.5C 405.757,68.6059 408.424,77.6059 411.5,86.5C 409.257,87.4742 406.924,87.8076 404.5,87.5C 404.643,85.7376 404.309,84.0709 403.5,82.5C 400.572,81.5159 397.572,81.1826 394.5,81.5C 394.459,86.7657 391.792,88.599 386.5,87C 389.885,77.9628 392.885,68.7961 395.5,59.5 Z M 398.5,66.5 C 400.202,69.7675 401.536,73.2675 402.5,77C 400.527,77.4955 398.527,77.6621 396.5,77.5C 397.167,73.8333 397.833,70.1667 398.5,66.5 Z"/></g>
<g><path style="opacity:0.868" fill="#d23938" d="M 409.5,59.5 C 423.5,59.5 437.5,59.5 451.5,59.5C 451.5,61.1667 451.5,62.8333 451.5,64.5C 449.167,64.5 446.833,64.5 444.5,64.5C 444.5,72.1667 444.5,79.8333 444.5,87.5C 442.5,87.5 440.5,87.5 438.5,87.5C 438.5,79.8333 438.5,72.1667 438.5,64.5C 433.5,64.5 428.5,64.5 423.5,64.5C 423.5,72.1667 423.5,79.8333 423.5,87.5C 421.5,87.5 419.5,87.5 417.5,87.5C 417.5,79.8333 417.5,72.1667 417.5,64.5C 414.833,64.5 412.167,64.5 409.5,64.5C 409.5,62.8333 409.5,61.1667 409.5,59.5 Z"/></g>
<g><path style="opacity:0.914" fill="#d23938" d="M 454.5,59.5 C 460.167,59.5 465.833,59.5 471.5,59.5C 471.5,60.8333 471.5,62.1667 471.5,63.5C 467.833,63.5 464.167,63.5 460.5,63.5C 460.5,66.1667 460.5,68.8333 460.5,71.5C 463.5,71.5 466.5,71.5 469.5,71.5C 469.5,72.8333 469.5,74.1667 469.5,75.5C 466.5,75.5 463.5,75.5 460.5,75.5C 460.5,78.1667 460.5,80.8333 460.5,83.5C 464.167,83.5 467.833,83.5 471.5,83.5C 471.5,84.8333 471.5,86.1667 471.5,87.5C 465.833,87.5 460.167,87.5 454.5,87.5C 454.5,78.1667 454.5,68.8333 454.5,59.5 Z"/></g>
<g><path style="opacity:0.864" fill="#d23938" d="M 475.5,59.5 C 480.511,59.3341 485.511,59.5007 490.5,60C 494.861,62.2258 496.361,65.7258 495,70.5C 493.833,73 492,74.8333 489.5,76C 492.205,79.242 494.539,82.742 496.5,86.5C 494.167,87.8333 491.833,87.8333 489.5,86.5C 487.646,82.7792 485.313,79.4459 482.5,76.5C 481.511,80.1073 481.177,83.774 481.5,87.5C 479.5,87.5 477.5,87.5 475.5,87.5C 475.5,78.1667 475.5,68.8333 475.5,59.5 Z M 481.5,63.5 C 488.351,62.9846 490.351,65.6512 487.5,71.5C 485.591,72.3482 483.591,72.6816 481.5,72.5C 481.5,69.5 481.5,66.5 481.5,63.5 Z"/></g>
<g><path style="opacity:0.878" fill="#d23938" d="M 500.5,59.5 C 502.5,59.5 504.5,59.5 506.5,59.5C 506.5,68.8333 506.5,78.1667 506.5,87.5C 504.5,87.5 502.5,87.5 500.5,87.5C 500.5,78.1667 500.5,68.8333 500.5,59.5 Z"/></g>
<g><path style="opacity:0.914" fill="#d23938" d="M 512.5,59.5 C 518.167,59.5 523.833,59.5 529.5,59.5C 529.5,60.8333 529.5,62.1667 529.5,63.5C 525.833,63.5 522.167,63.5 518.5,63.5C 518.5,66.1667 518.5,68.8333 518.5,71.5C 521.5,71.5 524.5,71.5 527.5,71.5C 527.5,72.8333 527.5,74.1667 527.5,75.5C 524.5,75.5 521.5,75.5 518.5,75.5C 518.5,78.1667 518.5,80.8333 518.5,83.5C 522.167,83.5 525.833,83.5 529.5,83.5C 529.5,84.8333 529.5,86.1667 529.5,87.5C 523.833,87.5 518.167,87.5 512.5,87.5C 512.5,78.1667 512.5,68.8333 512.5,59.5 Z"/></g>
<g><path style="opacity:0.838" fill="#d23938" d="M 537.5,59.5 C 540.85,59.335 544.183,59.5017 547.5,60C 549.116,60.6152 550.449,61.6152 551.5,63C 550.333,64.1667 549.167,65.3333 548,66.5C 544.402,62.5522 541.235,62.7189 538.5,67C 538.645,67.772 538.978,68.4387 539.5,69C 543.869,70.2666 547.703,72.4333 551,75.5C 551.667,78.5 551.667,81.5 551,84.5C 549.786,86.0488 548.286,87.2155 546.5,88C 540.657,89.3237 535.324,88.3237 530.5,85C 531.56,83.702 532.726,82.5353 534,81.5C 537.542,84.4811 541.209,84.8144 545,82.5C 545.825,80.2992 545.325,78.4659 543.5,77C 534.975,76.1641 531.475,71.6641 533,63.5C 534.397,61.9297 535.897,60.5964 537.5,59.5 Z"/></g>
<g><path style="opacity:0.878" fill="#d23938" d="M 566.5,59.5 C 568.5,59.5 570.5,59.5 572.5,59.5C 572.5,68.8333 572.5,78.1667 572.5,87.5C 570.5,87.5 568.5,87.5 566.5,87.5C 566.5,78.1667 566.5,68.8333 566.5,59.5 Z"/></g>
<g><path style="opacity:0.899" fill="#d23938" d="M 578.5,59.5 C 581.247,59.1866 583.914,59.52 586.5,60.5C 589.098,66.4595 591.598,72.4595 594,78.5C 594.5,72.1754 594.666,65.8421 594.5,59.5C 596.167,59.5 597.833,59.5 599.5,59.5C 599.5,68.8333 599.5,78.1667 599.5,87.5C 596.753,87.8134 594.086,87.48 591.5,86.5C 589,80.8333 586.5,75.1667 584,69.5C 583.501,75.4908 583.334,81.4908 583.5,87.5C 581.833,87.5 580.167,87.5 578.5,87.5C 578.5,78.1667 578.5,68.8333 578.5,59.5 Z"/></g>
<g><path style="opacity:0.864" fill="#d23938" d="M 605.5,59.5 C 623.625,56.456 630.459,63.7893 626,81.5C 624.749,84.3807 622.583,86.214 619.5,87C 614.845,87.4992 610.179,87.6658 605.5,87.5C 605.5,78.1667 605.5,68.8333 605.5,59.5 Z M 611.5,63.5 C 618.357,63.1695 621.69,66.5028 621.5,73.5C 621.468,80.1987 618.135,83.532 611.5,83.5C 611.5,76.8333 611.5,70.1667 611.5,63.5 Z"/></g>
<g><path style="opacity:0.854" fill="#d23938" d="M 637.5,59.5 C 652.289,58.8146 657.789,65.8146 654,80.5C 650.916,87.9549 645.416,90.4549 637.5,88C 635.376,86.8783 633.543,85.3783 632,83.5C 630,77.1667 630,70.8333 632,64.5C 633.73,62.5981 635.563,60.9314 637.5,59.5 Z M 641.5,63.5 C 646.922,64.8232 649.255,68.3232 648.5,74C 649.201,79.1036 647.201,82.6036 642.5,84.5C 637.799,82.6036 635.799,79.1036 636.5,74C 635.929,69.3121 637.596,65.8121 641.5,63.5 Z"/></g>
<g><path style="opacity:0.899" fill="#d23938" d="M 659.5,59.5 C 662.247,59.1866 664.914,59.52 667.5,60.5C 670.098,66.4595 672.598,72.4595 675,78.5C 675.5,72.1754 675.666,65.8421 675.5,59.5C 677.167,59.5 678.833,59.5 680.5,59.5C 680.5,68.8333 680.5,78.1667 680.5,87.5C 677.753,87.8134 675.086,87.48 672.5,86.5C 670,80.8333 667.5,75.1667 665,69.5C 664.501,75.4908 664.334,81.4908 664.5,87.5C 662.833,87.5 661.167,87.5 659.5,87.5C 659.5,78.1667 659.5,68.8333 659.5,59.5 Z"/></g>
<g><path style="opacity:0.914" fill="#d23938" d="M 686.5,59.5 C 692.167,59.5 697.833,59.5 703.5,59.5C 703.5,60.8333 703.5,62.1667 703.5,63.5C 699.833,63.5 696.167,63.5 692.5,63.5C 692.5,66.1667 692.5,68.8333 692.5,71.5C 695.5,71.5 698.5,71.5 701.5,71.5C 701.5,72.8333 701.5,74.1667 701.5,75.5C 698.5,75.5 695.5,75.5 692.5,75.5C 692.5,78.1667 692.5,80.8333 692.5,83.5C 696.167,83.5 699.833,83.5 703.5,83.5C 703.5,84.8333 703.5,86.1667 703.5,87.5C 697.833,87.5 692.167,87.5 686.5,87.5C 686.5,78.1667 686.5,68.8333 686.5,59.5 Z"/></g>
<g><path style="opacity:0.838" fill="#d23938" d="M 711.5,59.5 C 714.85,59.335 718.183,59.5017 721.5,60C 723.116,60.6152 724.449,61.6152 725.5,63C 724.333,64.1667 723.167,65.3333 722,66.5C 718.402,62.5522 715.235,62.7189 712.5,67C 712.645,67.772 712.978,68.4387 713.5,69C 717.869,70.2666 721.703,72.4333 725,75.5C 725.667,78.5 725.667,81.5 725,84.5C 723.786,86.0488 722.286,87.2155 720.5,88C 714.657,89.3237 709.324,88.3237 704.5,85C 705.56,83.702 706.726,82.5353 708,81.5C 711.542,84.4811 715.209,84.8144 719,82.5C 719.825,80.2992 719.325,78.4659 717.5,77C 708.975,76.1641 705.475,71.6641 707,63.5C 708.397,61.9297 709.897,60.5964 711.5,59.5 Z"/></g>
<g><path style="opacity:0.878" fill="#d23938" d="M 729.5,59.5 C 731.5,59.5 733.5,59.5 735.5,59.5C 735.5,68.8333 735.5,78.1667 735.5,87.5C 733.5,87.5 731.5,87.5 729.5,87.5C 729.5,78.1667 729.5,68.8333 729.5,59.5 Z"/></g>
<g><path style="opacity:0.869" fill="#d23938" d="M 762.5,85.5 C 762.5,86.1667 762.5,86.8333 762.5,87.5C 760.167,87.5 757.833,87.5 755.5,87.5C 755.643,85.7376 755.309,84.0709 754.5,82.5C 751.572,81.5159 748.572,81.1826 745.5,81.5C 745.459,86.7657 742.792,88.599 737.5,87C 740.714,78.6492 743.548,70.1492 746,61.5C 748.456,59.6787 751.289,59.012 754.5,59.5C 756.594,68.4429 759.261,77.1096 762.5,85.5 Z M 749.5,66.5 C 751.202,69.7675 752.536,73.2675 753.5,77C 751.527,77.4955 749.527,77.6621 747.5,77.5C 748.167,73.8333 748.833,70.1667 749.5,66.5 Z"/></g>
<g><path style="opacity:1" fill="#e54d4a" d="M 138.5,58.5 C 137.007,66.1376 135.674,73.8043 134.5,81.5C 132.447,81.5979 130.78,80.9313 129.5,79.5C 130.682,73.1153 132.182,66.7819 134,60.5C 135.049,58.8934 136.549,58.2267 138.5,58.5 Z"/></g>
<g><path style="opacity:1" fill="#dedede" d="M 132.5,54.5 C 140.562,56.6867 148.562,59.1867 156.5,62C 157.5,62.8333 158.5,63.6667 159.5,64.5C 160.606,68.777 160.772,73.1103 160,77.5C 159.454,82.2527 158.287,86.5861 156.5,90.5C 146.198,86.7317 135.865,83.3984 125.5,80.5C 126.959,80.5674 128.292,80.2341 129.5,79.5C 130.78,80.9313 132.447,81.5979 134.5,81.5C 135.674,73.8043 137.007,66.1376 138.5,58.5C 136.23,57.4548 134.23,56.1214 132.5,54.5 Z"/></g>
<g><path style="opacity:1" fill="#fdf3f3" d="M 83.5,64.5 C 86.5,64.5 89.5,64.5 92.5,64.5C 92.7394,66.4672 92.4061,68.3005 91.5,70C 88.854,70.4974 86.1873,70.6641 83.5,70.5C 83.5,68.5 83.5,66.5 83.5,64.5 Z"/></g>
<g><path style="opacity:1" fill="#dfdfdf" d="M 25.5,57.5 C 25.8333,58.5 26.5,59.1667 27.5,59.5C 23.0781,66.9492 23.7448,73.9492 29.5,80.5C 28.2617,80.81 28.2617,81.31 29.5,82C 30.5266,82.5133 31.5266,83.0133 32.5,83.5C 23.9898,86.5667 15.6565,90.2334 7.5,94.5C 5.58289,91.1956 4.41623,87.5289 4,83.5C 2.83756,78.8747 2.50423,74.208 3,69.5C 9.3669,63.564 16.8669,59.564 25.5,57.5 Z"/></g>
<g><path style="opacity:1" fill="#f3f3f3" d="M 144.5,94.5 C 142.595,97.3037 140.929,100.304 139.5,103.5C 137.642,102.405 135.975,101.071 134.5,99.5C 136.175,95.4748 138.341,91.8081 141,88.5C 142.635,88.8777 144.135,89.5444 145.5,90.5C 144.754,91.7362 144.421,93.0695 144.5,94.5 Z"/></g>
<g><path style="opacity:1" fill="#ededed" d="M 41.5,93.5 C 41.8306,100.863 41.4973,108.197 40.5,115.5C 37.2489,113.625 34.0823,111.625 31,109.5C 29.0436,104.172 27.5436,98.839 26.5,93.5C 25.9532,89.71 27.6199,87.71 31.5,87.5C 34.606,89.9522 37.9393,91.9522 41.5,93.5 Z"/></g>
<g><path style="opacity:1" fill="#c0c0c0" d="M 155.5,92.5 C 154.666,93.7479 153.333,94.4146 151.5,94.5C 149.667,94.4146 148.334,93.7479 147.5,92.5C 147.369,91.6236 147.702,90.9569 148.5,90.5C 150.618,91.9459 152.951,92.6126 155.5,92.5 Z"/></g>
<g><path style="opacity:1" fill="#e2e2e2" d="M 17.5,98.5 C 16.036,99.1599 14.3693,99.4932 12.5,99.5C 10.3603,99.4439 8.69363,98.7773 7.5,97.5C 9.92788,96.7878 12.2612,95.7878 14.5,94.5C 15.984,95.4669 16.984,96.8002 17.5,98.5 Z"/></g>
<g><path style="opacity:1" fill="#e8e8e8" d="M 46.5,96.5 C 54.0692,100.869 61.9026,104.869 70,108.5C 68.6407,112.183 66.474,115.517 63.5,118.5C 62.1276,120.868 60.1276,122.535 57.5,123.5C 53.0714,121.972 48.9048,119.972 45,117.5C 44.8333,114 44.6667,110.5 44.5,107C 44.5123,103.098 45.179,99.5982 46.5,96.5 Z"/></g>
<g><path style="opacity:1" fill="#ededed" d="M 136.5,105.5 C 136.611,106.117 136.944,106.617 137.5,107C 134.924,110.063 132.591,113.229 130.5,116.5C 127.768,118.603 124.768,118.936 121.5,117.5C 125.167,112.833 128.833,108.167 132.5,103.5C 133.86,104.18 135.193,104.847 136.5,105.5 Z"/></g>
<g><path style="opacity:1" fill="#d8d8d8" d="M 32.5,114.5 C 35.1959,116.27 38.0292,117.936 41,119.5C 41.6667,120.833 41.6667,122.167 41,123.5C 37.2637,121.266 34.4304,118.266 32.5,114.5 Z"/></g>
<g><path style="opacity:1" fill="#2e2e2e" d="M 125.5,80.5 C 135.865,83.3984 146.198,86.7317 156.5,90.5C 156.167,91.1667 155.833,91.8333 155.5,92.5C 152.951,92.6126 150.618,91.9459 148.5,90.5C 147.702,90.9569 147.369,91.6236 147.5,92.5C 146.685,93.4293 145.852,94.4293 145,95.5C 144.601,95.2716 144.435,94.9382 144.5,94.5C 144.421,93.0695 144.754,91.7362 145.5,90.5C 144.135,89.5444 142.635,88.8777 141,88.5C 138.341,91.8081 136.175,95.4748 134.5,99.5C 135.975,101.071 137.642,102.405 139.5,103.5C 138.71,104.401 137.71,105.068 136.5,105.5C 135.193,104.847 133.86,104.18 132.5,103.5C 128.833,108.167 125.167,112.833 121.5,117.5C 124.768,118.936 127.768,118.603 130.5,116.5C 130.5,117.167 130.5,117.833 130.5,118.5C 130.5,119.167 130.167,119.5 129.5,119.5C 127.518,119.995 125.518,120.495 123.5,121C 124.451,121.718 124.617,122.551 124,123.5C 122.488,124.257 121.154,125.257 120,126.5C 119.601,126.272 119.435,125.938 119.5,125.5C 120.23,124.288 121.23,123.288 122.5,122.5C 120.579,121.359 118.579,121.192 116.5,122C 114.759,123.62 112.925,125.12 111,126.5C 110.275,124.842 109.108,124.342 107.5,125C 98.8587,132.895 89.192,134.561 78.5,130C 83.8333,126 89.1667,122 94.5,118C 99.4801,118.323 104.48,118.823 109.5,119.5C 109.03,123.97 110.03,124.47 112.5,121C 110.893,119.951 110.227,118.451 110.5,116.5C 105.103,116.51 100.436,114.844 96.5,111.5C 99.9775,107.888 102.978,103.888 105.5,99.5C 102.741,99.6754 100.075,99.1754 97.5,98C 100.817,97.5017 104.15,97.335 107.5,97.5C 107.67,96.1779 107.337,95.0113 106.5,94C 107.308,93.6924 107.975,93.1924 108.5,92.5C 105.113,90.5816 101.779,89.5816 98.5,89.5C 99.0831,87.9984 99.9164,86.6651 101,85.5C 104.291,87.3783 107.791,88.2116 111.5,88C 112.5,86.3333 113.5,84.6667 114.5,83C 109.903,81.5813 105.236,80.9147 100.5,81C 101.167,81.3333 101.833,81.6667 102.5,82C 100.101,82.7311 97.9347,83.8978 96,85.5C 95.5439,86.7441 96.0439,87.5774 97.5,88C 96.944,88.3826 96.6107,88.8826 96.5,89.5C 95.8826,89.6107 95.3826,89.944 95,90.5C 94.7679,89.2625 94.2679,88.2625 93.5,87.5C 92.7659,86.2921 92.4326,84.9587 92.5,83.5C 94.9775,83.9492 96.9775,83.2825 98.5,81.5C 96.3635,80.2072 94.3635,80.2072 92.5,81.5C 91.6043,82.5063 90.9377,82.5063 90.5,81.5C 90.5299,80.5028 90.0299,79.8361 89,79.5C 87.6667,80.1667 86.3333,80.8333 85,81.5C 83.0683,79.8221 80.9017,79.3221 78.5,80C 79.5634,81.1882 80.8967,81.6882 82.5,81.5C 82.5,82.5 82.5,83.5 82.5,84.5C 78.1382,84.2437 73.8049,84.077 69.5,84C 71.3959,85.8083 71.8959,87.975 71,90.5C 70.586,90.0426 70.086,89.7093 69.5,89.5C 68.8182,90.2427 68.1515,90.9094 67.5,91.5C 67.6495,90.448 67.4828,89.448 67,88.5C 64.1667,87 62,84.8333 60.5,82C 56.4963,81.8555 52.4963,82.1889 48.5,83C 45.5787,85.8574 44.912,89.1907 46.5,93C 54.7702,97.9683 63.4369,102.135 72.5,105.5C 75.2516,102.996 77.2516,99.9956 78.5,96.5C 81.4944,94.9341 82.4944,95.6008 81.5,98.5C 79.8583,101.102 78.1916,103.769 76.5,106.5C 77.5769,107.705 78.9102,108.372 80.5,108.5C 79.4863,109.674 78.153,110.34 76.5,110.5C 75.448,110.351 74.448,110.517 73.5,111C 71.3714,113.439 69.3714,115.939 67.5,118.5C 66.2976,117.595 64.9643,117.595 63.5,118.5C 66.474,115.517 68.6407,112.183 70,108.5C 61.9026,104.869 54.0692,100.869 46.5,96.5C 44.1273,94.1431 43.1273,90.8097 43.5,86.5C 43.5299,85.5028 43.0299,84.8361 42,84.5C 40.0797,84.938 38.2464,85.6047 36.5,86.5C 38.2459,88.2516 40.2459,89.5849 42.5,90.5C 42.0825,91.2216 41.4158,91.7216 40.5,92C 41.1667,92.3333 41.8333,92.6667 42.5,93C 42.2716,93.3988 41.9382,93.5654 41.5,93.5C 37.9393,91.9522 34.606,89.9522 31.5,87.5C 27.6199,87.71 25.9532,89.71 26.5,93.5C 26.405,95.7857 25.7384,97.7857 24.5,99.5C 24.3447,96.3908 23.6781,93.3908 22.5,90.5C 20.7697,91.0256 19.4363,92.0256 18.5,93.5C 19.9861,97.8056 21.9861,101.806 24.5,105.5C 23.6715,106.332 22.8382,105.999 22,104.5C 21.2082,101.894 19.7082,99.8936 17.5,98.5C 16.984,96.8002 15.984,95.4669 14.5,94.5C 12.2612,95.7878 9.92788,96.7878 7.5,97.5C 7.08247,96.7784 6.4158,96.2784 5.5,96C 6.4158,95.7216 7.08247,95.2216 7.5,94.5C 15.6565,90.2334 23.9898,86.5667 32.5,83.5C 48.7295,79.4085 65.2295,77.0751 82,76.5C 96.5817,77.201 111.082,78.5344 125.5,80.5 Z"/></g>
<g><path style="opacity:1" fill="#ececec" d="M 76.5,110.5 C 77.209,111.404 78.209,111.737 79.5,111.5C 79.5,112.5 79.5,113.5 79.5,114.5C 76.8858,114.277 75.2191,115.444 74.5,118C 72.1902,118.497 69.8568,118.663 67.5,118.5C 69.3714,115.939 71.3714,113.439 73.5,111C 74.448,110.517 75.448,110.351 76.5,110.5 Z"/></g>
<g><path style="opacity:1" fill="#343434" d="M 94.5,111.5 C 94.5,112.167 94.1667,112.5 93.5,112.5C 84.8247,111.921 83.9914,109.921 91,106.5C 92.9706,107.528 94.1372,109.195 94.5,111.5 Z"/></g>
<g><path style="opacity:1" fill="#ebebeb" d="M 112.5,93.5 C 118.908,95.2028 124.575,98.2028 129.5,102.5C 125.858,107.61 121.858,112.443 117.5,117C 115.559,117.743 113.726,117.576 112,116.5C 112.801,105.88 109.968,104.38 103.5,112C 102.5,112.667 101.5,112.667 100.5,112C 104.204,107.428 107.537,102.594 110.5,97.5C 110.023,96.5224 109.357,95.6891 108.5,95C 109.449,94.3828 110.282,94.5494 111,95.5C 111.495,97.4727 111.662,99.4727 111.5,101.5C 113.6,101.477 115.433,102.144 117,103.5C 118.766,102.767 120.599,102.433 122.5,102.5C 122.703,100.61 122.037,99.1096 120.5,98C 117.883,97.1785 115.216,96.6785 112.5,96.5C 112.5,95.5 112.5,94.5 112.5,93.5 Z"/></g>
<g><path style="opacity:1" fill="#efefef" d="M 96.5,111.5 C 95.8333,111.5 95.1667,111.5 94.5,111.5C 94.1372,109.195 92.9706,107.528 91,106.5C 83.9914,109.921 84.8247,111.921 93.5,112.5C 95.1506,113.547 96.8172,114.714 98.5,116C 95.4718,117.14 93.3051,116.306 92,113.5C 90.9887,114.337 89.8221,114.67 88.5,114.5C 85.525,114.287 82.8584,113.287 80.5,111.5C 84.3354,110.004 84.3354,109.004 80.5,108.5C 78.9102,108.372 77.5769,107.705 76.5,106.5C 78.1916,103.769 79.8583,101.102 81.5,98.5C 85.039,98.5956 88.539,98.9289 92,99.5C 92.1961,97.8459 91.3628,96.8459 89.5,96.5C 91.4099,95.316 91.7432,93.816 90.5,92C 93.0512,91.9977 95.0512,91.1644 96.5,89.5C 96.6107,88.8826 96.944,88.3826 97.5,88C 96.0439,87.5774 95.5439,86.7441 96,85.5C 97.9347,83.8978 100.101,82.7311 102.5,82C 101.833,81.6667 101.167,81.3333 100.5,81C 105.236,80.9147 109.903,81.5813 114.5,83C 113.5,84.6667 112.5,86.3333 111.5,88C 107.791,88.2116 104.291,87.3783 101,85.5C 99.9164,86.6651 99.0831,87.9984 98.5,89.5C 101.779,89.5816 105.113,90.5816 108.5,92.5C 107.975,93.1924 107.308,93.6924 106.5,94C 107.337,95.0113 107.67,96.1779 107.5,97.5C 104.15,97.335 100.817,97.5017 97.5,98C 100.075,99.1754 102.741,99.6754 105.5,99.5C 102.978,103.888 99.9775,107.888 96.5,111.5 Z"/></g>
<g><path style="opacity:1" fill="#dcdcdc" d="M 24.5,99.5 C 24.9539,101.741 24.9539,103.741 24.5,105.5C 21.9861,101.806 19.9861,97.8056 18.5,93.5C 19.4363,92.0256 20.7697,91.0256 22.5,90.5C 23.6781,93.3908 24.3447,96.3908 24.5,99.5 Z"/></g>
<g><path style="opacity:1" fill="#2b2b2b" d="M 75.5,94.5 C 74.0413,94.5674 72.7079,94.2341 71.5,93.5C 74.0303,89.6539 76.6969,89.6539 79.5,93.5C 78.3112,94.4287 76.9778,94.762 75.5,94.5 Z"/></g>
<g><path style="opacity:1" fill="#717171" d="M 90.5,81.5 C 90.9377,82.5063 91.6043,82.5063 92.5,81.5C 92.5,82.1667 92.5,82.8333 92.5,83.5C 92.4326,84.9587 92.7659,86.2921 93.5,87.5C 91.4558,88.7784 89.4558,88.6117 87.5,87C 88.7932,86.51 90.1266,86.3433 91.5,86.5C 91.5198,84.857 90.8532,83.5237 89.5,82.5C 89.6236,81.8933 89.9569,81.56 90.5,81.5 Z"/></g>
<g><path style="opacity:1" fill="#e1e1e1" d="M 43.5,86.5 C 42.5655,87.5676 42.2322,88.901 42.5,90.5C 40.2459,89.5849 38.2459,88.2516 36.5,86.5C 38.2464,85.6047 40.0797,84.938 42,84.5C 43.0299,84.8361 43.5299,85.5028 43.5,86.5 Z"/></g>
<g><path style="opacity:1" fill="#dfdfdf" d="M 90.5,81.5 C 89.9569,81.56 89.6236,81.8933 89.5,82.5C 90.8532,83.5237 91.5198,84.857 91.5,86.5C 90.1266,86.3433 88.7932,86.51 87.5,87C 89.4558,88.6117 91.4558,88.7784 93.5,87.5C 94.2679,88.2625 94.7679,89.2625 95,90.5C 95.3826,89.944 95.8826,89.6107 96.5,89.5C 95.0512,91.1644 93.0512,91.9977 90.5,92C 91.7432,93.816 91.4099,95.316 89.5,96.5C 91.3628,96.8459 92.1961,97.8459 92,99.5C 88.539,98.9289 85.039,98.5956 81.5,98.5C 82.4944,95.6008 81.4944,94.9341 78.5,96.5C 77.5,95.8333 76.5,95.1667 75.5,94.5C 76.9778,94.762 78.3112,94.4287 79.5,93.5C 76.6969,89.6539 74.0303,89.6539 71.5,93.5C 70.0048,93.0113 68.6715,92.3446 67.5,91.5C 68.1515,90.9094 68.8182,90.2427 69.5,89.5C 70.086,89.7093 70.586,90.0426 71,90.5C 71.8959,87.975 71.3959,85.8083 69.5,84C 73.8049,84.077 78.1382,84.2437 82.5,84.5C 82.5,83.5 82.5,82.5 82.5,81.5C 80.8967,81.6882 79.5634,81.1882 78.5,80C 80.9017,79.3221 83.0683,79.8221 85,81.5C 86.3333,80.8333 87.6667,80.1667 89,79.5C 90.0299,79.8361 90.5299,80.5028 90.5,81.5 Z"/></g>
<g><path style="opacity:1" fill="#1a1a1a" d="M 89.5,96.5 C 88.1033,96.7952 86.6033,97.1286 85,97.5C 82.957,95.9125 83.1236,94.5791 85.5,93.5C 86.8518,94.5244 88.1851,95.5244 89.5,96.5 Z"/></g>
<g><path style="opacity:1" fill="#1d1d1d" d="M 83.5,87.5 C 84.675,87.281 85.675,87.6143 86.5,88.5C 85.9883,91.5321 84.3216,92.6987 81.5,92C 82.5822,90.6703 83.2488,89.1703 83.5,87.5 Z"/></g>
<g><path style="opacity:1" fill="#f4f4f4" d="M 117.5,83.5 C 123.718,83.577 129.718,84.7437 135.5,87C 135.626,91.2613 134.126,95.0947 131,98.5C 125.353,95.5967 119.853,92.5967 114.5,89.5C 115.513,87.4734 116.513,85.4734 117.5,83.5 Z"/></g>
<g><path style="opacity:1" fill="#f0f0f0" d="M 67.5,91.5 C 68.6715,92.3446 70.0048,93.0113 71.5,93.5C 72.7079,94.2341 74.0413,94.5674 75.5,94.5C 76.5,95.1667 77.5,95.8333 78.5,96.5C 77.2516,99.9956 75.2516,102.996 72.5,105.5C 63.4369,102.135 54.7702,97.9683 46.5,93C 44.912,89.1907 45.5787,85.8574 48.5,83C 52.4963,82.1889 56.4963,81.8555 60.5,82C 62,84.8333 64.1667,87 67,88.5C 67.4828,89.448 67.6495,90.448 67.5,91.5 Z"/></g>
<g><path style="opacity:1" fill="#f2f2f2" d="M 92.5,83.5 C 92.5,82.8333 92.5,82.1667 92.5,81.5C 94.3635,80.2072 96.3635,80.2072 98.5,81.5C 96.9775,83.2825 94.9775,83.9492 92.5,83.5 Z"/></g>
<g><path style="opacity:1" fill="#d7d7d7" d="M 64.5,121.5 C 65.5593,123.07 65.0593,124.403 63,125.5C 62.7003,123.934 63.2003,122.601 64.5,121.5 Z"/></g>
<g><path style="opacity:1" fill="#dadada" d="M 45.5,122.5 C 49.0353,123.265 52.3686,124.599 55.5,126.5C 52.793,131.016 49.6263,131.016 46,126.5C 45.51,125.207 45.3433,123.873 45.5,122.5 Z"/></g>
<g><path style="opacity:1" fill="#d6d6d6" d="M 58.5,128.5 C 62.2113,129.866 61.878,131.199 57.5,132.5C 56.8333,132.167 56.1667,131.833 55.5,131.5C 56.7701,130.712 57.7701,129.712 58.5,128.5 Z"/></g>
<g><path style="opacity:1" fill="#dddddd" d="M 94.5,111.5 C 95.1667,111.5 95.8333,111.5 96.5,111.5C 100.436,114.844 105.103,116.51 110.5,116.5C 110.227,118.451 110.893,119.951 112.5,121C 110.03,124.47 109.03,123.97 109.5,119.5C 104.48,118.823 99.4801,118.323 94.5,118C 89.1667,122 83.8333,126 78.5,130C 89.192,134.561 98.8587,132.895 107.5,125C 109.108,124.342 110.275,124.842 111,126.5C 112.925,125.12 114.759,123.62 116.5,122C 118.579,121.192 120.579,121.359 122.5,122.5C 121.23,123.288 120.23,124.288 119.5,125.5C 116.886,126.807 114.22,128.14 111.5,129.5C 110.833,128.833 110.167,128.167 109.5,127.5C 98.2493,136.874 85.916,138.541 72.5,132.5C 68.9554,134.436 65.2887,134.769 61.5,133.5C 62.9122,132.194 64.5789,131.36 66.5,131C 64.9984,130.417 63.6651,129.584 62.5,128.5C 62.7093,127.914 63.0426,127.414 63.5,127C 66.3053,126.558 68.9719,127.058 71.5,128.5C 78.9693,125.6 85.6359,121.433 91.5,116C 90.2625,115.768 89.2625,115.268 88.5,114.5C 89.8221,114.67 90.9887,114.337 92,113.5C 93.3051,116.306 95.4718,117.14 98.5,116C 96.8172,114.714 95.1506,113.547 93.5,112.5C 94.1667,112.5 94.5,112.167 94.5,111.5 Z"/></g>
</svg>
